<svg width="140" height="28" viewBox="0 0 140 28" fill="none" xmlns="http://www.w3.org/2000/svg">
<g clip-path="url(#clip0)">
<path fill-rule="evenodd" clip-rule="evenodd" d="M6.78788 10.5645V21.7034H12.3436V10.5645H17.8522V21.7034H26.7457C27.0513 21.7034 27.347 21.6962 27.6326 21.6817H30.9637V21.0121C31.2872 20.8748 31.5823 20.7171 31.8492 20.539C33.0263 19.7481 33.6149 18.5983 33.6149 17.0897C33.6149 16.1669 33.3637 15.4053 32.8612 14.8047C32.3731 14.1896 31.6266 13.7135 30.6217 13.3767C32.2296 12.659 33.0335 11.5604 33.0335 10.0811C33.0335 7.37144 30.8012 6.0166 26.3365 6.0166H17.8522H1.33984V10.5645H6.78788ZM27.8223 10.8061C27.8223 11.5824 27.2553 11.9706 26.1212 11.9706H22.8911V9.68565H26.0566C26.6882 9.68565 27.1404 9.77353 27.4132 9.94929C27.686 10.1104 27.8223 10.396 27.8223 10.8061ZM27.8654 17.7048C27.5496 17.9245 27.0112 18.0344 26.2504 18.0344H22.8911V15.2881H26.2073C26.9682 15.2881 27.5137 15.3979 27.8439 15.6176C28.1884 15.8227 28.3607 16.1669 28.3607 16.6502C28.3607 17.1336 28.1956 17.4851 27.8654 17.7048Z" fill="#F39200"/>
<path d="M41.0297 21.6724L40.371 19.8553H35.1877L34.5463 21.6724H30.0391L35.1704 9.31638H40.5097L45.641 21.6724H41.0297ZM37.788 12.639L36.3492 16.5846H39.2095L37.788 12.639Z" fill="#1C2356"/>
<path d="M54.3161 9.31638H58.7887V16.1001C58.7887 18.1075 58.2455 19.59 57.1591 20.5475C56.0843 21.5051 54.4201 21.9839 52.1665 21.9839C49.9129 21.9839 48.2429 21.5051 47.1566 20.5475C46.0818 19.59 45.5444 18.1075 45.5444 16.1001V9.31638H50.0169V16.4635C50.0169 17.1441 50.1845 17.6402 50.5197 17.9517C50.8548 18.2632 51.4038 18.419 52.1665 18.419C52.9293 18.419 53.4782 18.2632 53.8134 17.9517C54.1486 17.6402 54.3161 17.1441 54.3161 16.4635V9.31638Z" fill="#1C2356"/>
<path d="M74.2161 16.8788C74.1006 18.4824 73.4302 19.7342 72.2052 20.634C70.9802 21.5339 69.3449 21.9839 67.2993 21.9839C65.7853 21.9839 64.4794 21.7358 63.3815 21.2397C62.2951 20.7321 61.4572 19.988 60.8678 19.0073C60.2784 18.0267 59.9837 16.8557 59.9837 15.4944C59.9837 14.1907 60.2726 13.0486 60.8505 12.0679C61.4283 11.0873 62.2662 10.3316 63.3641 9.80093C64.462 9.27023 65.7911 9.00488 67.3513 9.00488C69.212 9.00488 70.6912 9.37983 71.7892 10.1297C72.8871 10.8796 73.6152 12.0102 73.9734 13.5216L69.5355 13.9715C69.3622 13.4754 69.1022 13.1178 68.7555 12.8986C68.4203 12.6794 67.9465 12.5698 67.3339 12.5698C66.4441 12.5698 65.768 12.8178 65.3057 13.3139C64.855 13.81 64.6296 14.5368 64.6296 15.4944C64.6296 17.4441 65.5542 18.419 67.4033 18.419C68.7555 18.419 69.5413 17.9056 69.7609 16.8788H74.2161Z" fill="#1C2356"/>
<path d="M78.3804 21.6724V12.8986H73.9945V9.31638H87.2388V12.8986H82.8529V21.6724H78.3804Z" fill="#1C2356"/>
<path d="M87.9613 21.6724V9.31638H92.4339V21.6724H87.9613Z" fill="#1C2356"/>
<path d="M108.729 15.4944C108.729 16.8211 108.428 17.9748 107.827 18.9554C107.238 19.9245 106.371 20.6744 105.227 21.2051C104.083 21.7243 102.707 21.9839 101.101 21.9839C99.5638 21.9839 98.229 21.7358 97.0964 21.2397C95.9754 20.7321 95.1086 19.9938 94.4961 19.0247C93.8836 18.044 93.5773 16.8673 93.5773 15.4944C93.5773 14.1676 93.872 13.0197 94.4614 12.0506C95.0624 11.07 95.9349 10.3201 97.0791 9.80093C98.2232 9.27023 99.5985 9.00488 101.205 9.00488C102.742 9.00488 104.071 9.2587 105.192 9.76632C106.325 10.2624 107.197 11.0008 107.81 11.9814C108.422 12.9505 108.729 14.1215 108.729 15.4944ZM104.083 15.4944C104.083 14.5599 103.823 13.8388 103.303 13.3312C102.794 12.8236 102.077 12.5698 101.153 12.5698C100.228 12.5698 99.506 12.8236 98.986 13.3312C98.4775 13.8388 98.2232 14.5599 98.2232 15.4944C98.2232 16.4289 98.4775 17.1499 98.986 17.6575C99.506 18.1652 100.228 18.419 101.153 18.419C102.077 18.419 102.794 18.1652 103.303 17.6575C103.823 17.1499 104.083 16.4289 104.083 15.4944Z" fill="#1C2356"/>
<path d="M119.539 21.6724L114.096 15.1656V21.6724H109.883V9.31638H113.801L119.244 15.8232V9.31638H123.457V21.6724H119.539Z" fill="#1C2356"/>
<path d="M132.889 13.262C132.739 12.8236 132.502 12.5121 132.178 12.3275C131.866 12.1429 131.416 12.0506 130.826 12.0506C130.237 12.0506 129.78 12.1198 129.457 12.2583C129.145 12.3852 128.989 12.5755 128.989 12.8294C128.989 13.0139 129.058 13.1524 129.197 13.2447C129.347 13.337 129.619 13.4177 130.012 13.487L132.82 13.9542C134.496 14.2311 135.692 14.6753 136.408 15.2867C137.136 15.8866 137.5 16.7461 137.5 17.8652C137.5 20.611 135.31 21.9839 130.93 21.9839C126.77 21.9839 124.557 20.4898 124.291 17.5018H128.677C128.862 18.4593 129.619 18.9381 130.948 18.9381C132.369 18.9381 133.08 18.6324 133.08 18.0209C133.08 17.8248 132.982 17.6748 132.785 17.571C132.6 17.4556 132.3 17.3633 131.884 17.2941L129.647 16.948C127.937 16.6827 126.672 16.227 125.851 15.5809C125.03 14.9233 124.62 14.0465 124.62 12.9505C124.62 11.716 125.181 10.7527 126.302 10.0605C127.434 9.35676 129 9.00488 131 9.00488C132.86 9.00488 134.305 9.33368 135.334 9.99129C136.374 10.6374 136.975 11.6064 137.136 12.8986L132.889 13.262Z" fill="#1C2356"/>
<rect x="87.9414" y="6.0166" width="4.54466" height="2.54545" fill="#F29200"/>
</g>
<defs>
<clipPath id="clip0">
<rect width="136.16" height="15.9669" fill="white" transform="translate(1.33984 6.0166)"/>
</clipPath>
</defs>
</svg>
